<?xml version="1.0" encoding="UTF-8"?>
<svg width="40px" height="40px" viewBox="0 0 40 40" version="1.1" xmlns="http://www.w3.org/2000/svg" xmlns:xlink="http://www.w3.org/1999/xlink">
    <title>Group 3</title>
    <defs>
        <polygon id="path-1" points="7.10542909e-17 0 40 0 40 40.0000055 7.10542909e-17 40.0000055"></polygon>
    </defs>
    <g id="Page-1" stroke="none" stroke-width="1" fill="none" fill-rule="evenodd">
        <g id="HOME-1920" transform="translate(-497.000000, -7085.000000)">
            <g id="FOOTER" transform="translate(0.000000, 5700.000000)">
                <g id="Group-3" transform="translate(497.000000, 1385.000000)">
                    <mask id="mask-2" fill="white">
                        <use xlink:href="#path-1"></use>
                    </mask>
                    <g id="Clip-2"></g>
                    <path d="M13.333031,20.0123046 C13.3265615,16.3309437 16.3060822,13.340423 19.9867231,13.3339301 C23.668044,13.326783 26.6591648,16.3050237 26.6663376,19.9870246 C26.6734848,23.6690255 23.693924,26.6589462 20.0120031,26.6661188 C16.3313622,26.6731862 13.3401615,23.6943055 13.333031,20.0123046 M9.73082076,20.0194246 C9.74184064,25.691466 14.3484818,30.2793871 20.0191231,30.268367 C25.6904445,30.2573471 30.2808456,25.651946 30.2699052,19.9799046 C30.2588456,14.3098232 25.6515645,9.71930212 19.9796031,9.73032225 C14.3089217,9.74134213 9.71980063,14.3487032 9.73082076,20.0194246 M28.2546004,9.30914202 C28.2572051,10.6336623 29.3341254,11.7061426 30.6586857,11.7035473 C31.983806,11.7009426 33.0562463,10.6245823 33.0543289,9.30006202 C33.0517263,7.9755417 31.974766,6.90242144 30.6496057,6.90501672 C29.3244454,6.90762144 28.2520051,7.9845817 28.2546004,9.30914202 M11.9502412,36.2935486 C10.0003607,36.2086686 8.94156044,35.8846685 8.23588027,35.6131484 C7.30144004,35.2515483 6.63467988,34.8180682 5.93287971,34.1214681 C5.23239954,33.4222279 4.79755943,32.7573477 4.43275934,31.8248675 C4.15863928,31.1191873 3.8288392,30.0616271 3.73743917,28.1117866 C3.63827915,26.0037861 3.61563914,25.3713459 3.60591914,20.0311046 C3.59555914,14.6921433 3.61495914,14.0597032 3.70699917,11.9497827 C3.79055919,10.0012222 4.11655927,8.94106193 4.38739933,8.23602176 C4.74895942,7.30030153 5.18119953,6.63478137 5.8790797,5.9330212 C6.57827987,5.23122103 7.24312003,4.79770092 8.17624025,4.43286084 C8.88128043,4.15742077 9.93884068,3.83018069 11.8880412,3.73754067 C13.9972417,3.63774064 14.6290418,3.61638064 19.9679631,3.60598063 C25.3080844,3.59562063 25.9405246,3.61442064 28.0504851,3.70710066 C29.9989656,3.79198068 31.0590858,4.11470076 31.763526,4.38750082 C32.6985662,4.74906091 33.3653664,5.18002102 34.0665266,5.87922119 C34.7676067,6.57842136 35.2024468,7.24198152 35.5672469,8.17706175 C35.842647,8.88014192 36.1699271,9.93898218 36.2619671,11.8875426 C36.3623671,13.9968232 36.3850871,14.6293033 36.3947671,19.9682246 C36.4051271,25.3084659 36.3856871,25.9409461 36.2930471,28.0495866 C36.2081671,29.9994271 35.884807,31.0589473 35.6126469,31.7652675 C35.2510468,32.6990677 34.8188467,33.3658679 34.1202866,34.067668 C33.4217664,34.7668282 32.7569262,35.2029483 31.823126,35.5677884 C31.1193658,35.8425485 30.0605656,36.1704286 28.1126451,36.2631086 C26.0034446,36.3622286 25.3716044,36.3849086 20.0307631,36.3946686 C14.6918818,36.4049886 14.0601217,36.3849086 11.9502412,36.2935486 M11.7169211,0.13849979 C9.5888806,0.238939815 8.13544024,0.579779898 6.86531994,1.07746002 C5.55055962,1.59002014 4.43599934,2.27694031 3.32727907,3.39022058 C2.2172388,4.50414085 1.53555864,5.62062112 1.02687851,6.93674144 C0.534398395,8.21010175 0.200638313,9.66422211 0.106678291,11.7935826 C0.0133982679,13.9268631 -0.00800173728,14.6072633 0.00239826525,20.0382246 C0.0127582678,25.468546 0.0367182736,26.1502261 0.138438298,28.2841466 C0.240158323,30.4115472 0.579758406,31.8644275 1.07739853,33.1351478 C1.59063865,34.4499481 2.27683882,35.5639084 3.39075909,36.6732687 C4.50403936,37.782709 5.62119963,38.4637491 6.93791995,38.9731092 C8.20996026,39.4649094 9.66472062,39.7999094 11.7934011,39.8932295 C13.9266417,39.9872295 14.6076418,40.0079495 20.0372831,39.9975895 C25.4694445,39.9872295 26.1505246,39.9632295 28.2837651,39.8621495 C30.4118057,39.7603894 31.863926,39.4195894 33.1353263,38.9231892 C34.4501266,38.4086691 35.5646469,37.7237089 36.6734072,36.6097887 C37.7821275,35.4964684 38.4638476,34.3793481 38.9725277,33.0625878 C39.4650079,31.7905475 39.800008,30.3357471 39.892648,28.2083466 C39.985968,26.0737861 40.008048,25.3920659 39.997648,19.9617446 C39.987248,14.5307833 39.962688,13.8503831 39.861608,11.7177826 C39.7605279,9.58842209 39.4196479,8.13622174 38.9226077,6.86482143 C38.4087676,5.55002111 37.7232074,4.43674084 36.6099272,3.32670057 C35.4966469,2.2179803 34.3794866,1.53494013 33.0627663,1.02758001 C31.790086,0.535059887 30.3359656,0.199419805 28.2072451,0.107379783 C26.0740046,0.0127797597 25.3930044,-0.00794024539 19.9614431,0.00241975713 C14.5312018,0.0127797597 13.8501616,0.0360997653 11.7169211,0.13849979" id="Fill-1" fill="#FFFFFF" mask="url(#mask-2)"></path>
                </g>
            </g>
        </g>
    </g>
</svg>