<?xml version="1.0" encoding="UTF-8"?>
<svg width="282px" height="30px" viewBox="0 0 282 30" version="1.1" xmlns="http://www.w3.org/2000/svg" xmlns:xlink="http://www.w3.org/1999/xlink">
    <title>Group 17</title>
    <defs>
        <polygon id="path-1" points="0 0 4.4518 0 4.4518 4.4516 0 4.4516"></polygon>
        <polygon id="path-3" points="0 0 274.9065 0 274.9065 29.9924 0 29.9924"></polygon>
    </defs>
    <g id="Page-1" stroke="none" stroke-width="1" fill="none" fill-rule="evenodd">
        <g id="HOME-1920" transform="translate(-160.000000, -38.000000)">
            <g id="Group-17" transform="translate(160.000000, 38.000000)">
                <path d="M279.6932,1.6949 C279.6932,1.4409 279.5332,1.2839 279.2752,1.2839 L278.6102,1.2839 L278.6102,2.1129 L279.2752,2.1129 C279.5332,2.1129 279.6932,1.9489 279.6932,1.6949 M280.1112,3.3559 L279.7142,3.3559 C279.6972,3.2729 279.6862,3.0639 279.6822,2.8649 C279.6752,2.5969 279.5372,2.4189 279.3062,2.4189 L278.6102,2.4189 L278.6102,3.3559 L278.2302,3.3559 L278.2302,0.9459 L279.3132,0.9459 C279.7842,0.9459 280.0832,1.2109 280.0832,1.6289 C280.0832,1.9279 279.9262,2.1509 279.6652,2.2489 C279.9092,2.3219 280.0512,2.5129 280.0622,2.8199 C280.0692,3.0429 280.0832,3.2689 280.1112,3.3559" id="Fill-1" fill="#0C0C0C"></path>
                <path d="M278.6913,2.0313 L279.2753,2.0313 C279.4863,2.0313 279.6123,1.9063 279.6123,1.6953 C279.6123,1.4853 279.4893,1.3643 279.2753,1.3643 L278.6913,1.3643 L278.6913,2.0313 Z M279.2753,2.1943 L278.5293,2.1943 L278.5293,1.2023 L279.2753,1.2023 C279.5783,1.2023 279.7743,1.3963 279.7743,1.6953 C279.7743,1.9933 279.5743,2.1943 279.2753,2.1943 L279.2753,2.1943 Z M279.7843,3.2753 L280.0123,3.2753 C279.9983,3.1753 279.9873,3.0253 279.9813,2.8223 C279.9723,2.5583 279.8583,2.3913 279.6423,2.3263 L279.4113,2.2573 L279.6373,2.1723 C279.8693,2.0863 280.0023,1.8873 280.0023,1.6283 C280.0023,1.2583 279.7383,1.0273 279.3133,1.0273 L278.3113,1.0273 L278.3113,3.2753 L278.5293,3.2753 L278.5293,2.3383 L279.3063,2.3383 C279.5763,2.3383 279.7553,2.5443 279.7633,2.8633 C279.7663,3.0333 279.7743,3.1833 279.7843,3.2753 L279.7843,3.2753 Z M280.2223,3.4373 L279.6483,3.4373 L279.6343,3.3723 C279.6103,3.2543 279.6033,2.9553 279.6013,2.8663 C279.5953,2.6373 279.4853,2.5003 279.3063,2.5003 L278.6913,2.5003 L278.6913,3.4373 L278.1493,3.4373 L278.1493,0.8643 L279.3133,0.8643 C279.8303,0.8643 280.1643,1.1643 280.1643,1.6283 C280.1643,1.8953 280.0523,2.1123 279.8523,2.2443 C280.0333,2.3583 280.1343,2.5553 280.1433,2.8173 C280.1553,3.1773 280.1763,3.2943 280.1883,3.3313 L280.2223,3.4373 Z" id="Fill-3" fill="#0C0C0C"></path>
                <path d="M278.6678,2.0552 L279.2748,2.0552 C279.5008,2.0552 279.6358,1.9202 279.6358,1.6952 C279.6358,1.4732 279.5008,1.3412 279.2748,1.3412 L278.6678,1.3412 L278.6678,2.0552 Z M279.2748,2.1702 L278.5528,2.1702 L278.5528,1.2262 L279.2748,1.2262 C279.5638,1.2262 279.7508,1.4102 279.7508,1.6952 C279.7508,1.9832 279.5638,2.1702 279.2748,2.1702 L279.2748,2.1702 Z M279.7638,3.2982 L280.0398,3.2982 C280.0228,3.2012 280.0118,3.0432 280.0048,2.8212 C279.9958,2.5462 279.8758,2.3712 279.6488,2.3042 L279.4848,2.2542 L279.6458,2.1952 C279.8878,2.1042 280.0258,1.8982 280.0258,1.6282 C280.0258,1.2432 279.7528,1.0032 279.3138,1.0032 L278.2878,1.0032 L278.2878,3.2982 L278.5528,3.2982 L278.5528,2.3622 L279.3068,2.3622 C279.5628,2.3622 279.7318,2.5582 279.7398,2.8632 C279.7438,3.0512 279.7518,3.2102 279.7638,3.2982 L279.7638,3.2982 Z M280.1898,3.4132 L279.6678,3.4132 L279.6578,3.3672 C279.6338,3.2522 279.6268,2.9542 279.6248,2.8662 C279.6188,2.6222 279.4998,2.4762 279.3068,2.4762 L278.6678,2.4762 L278.6678,3.4132 L278.1728,3.4132 L278.1728,0.8882 L279.3138,0.8882 C279.8158,0.8882 280.1408,1.1792 280.1408,1.6282 C280.1408,1.9012 280.0218,2.1192 279.8078,2.2442 C280.0028,2.3492 280.1098,2.5452 280.1198,2.8182 C280.1308,3.1632 280.1508,3.2912 280.1658,3.3382 L280.1898,3.4132 Z" id="Fill-5" fill="#0C0C0C"></path>
                <path d="M278.7489,1.9742 L279.2749,1.9742 C279.4559,1.9742 279.5549,1.8752 279.5549,1.6952 C279.5549,1.5192 279.4559,1.4222 279.2749,1.4222 L278.7489,1.4222 L278.7489,1.9742 Z M278.3689,3.2172 L278.4719,3.2172 L278.4719,2.2802 L279.2899,2.2802 L279.2299,2.2632 L279.2619,2.2512 L278.4719,2.2512 L278.4719,1.1452 L279.2749,1.1452 C279.6079,1.1452 279.8319,1.3662 279.8319,1.6952 C279.8319,1.8542 279.7809,1.9882 279.6899,2.0852 C279.8549,1.9952 279.9439,1.8362 279.9439,1.6282 C279.9439,1.2882 279.7089,1.0842 279.3129,1.0842 L278.3689,1.0842 L278.3689,3.2172 Z M279.8369,3.2172 L279.9469,3.2172 C279.9359,3.1202 279.9299,2.9902 279.9239,2.8242 C279.9159,2.5842 279.8179,2.4392 279.6259,2.3812 L279.5999,2.3732 C279.7329,2.4722 279.8149,2.6442 279.8209,2.8612 C279.8239,3.0042 279.8289,3.1282 279.8369,3.2172 L279.8369,3.2172 Z M280.3009,3.4952 L279.6019,3.4952 L279.5779,3.3842 C279.5539,3.2662 279.5459,2.9832 279.5439,2.8672 C279.5409,2.7522 279.5059,2.5582 279.3069,2.5582 L278.7489,2.5582 L278.7489,3.4952 L278.0919,3.4952 L278.0919,0.8072 L279.3129,0.8072 C279.8569,0.8072 280.2219,1.1372 280.2219,1.6282 C280.2219,1.8832 280.1269,2.0982 279.9499,2.2432 C280.1059,2.3702 280.1919,2.5652 280.2009,2.8152 C280.2129,3.1822 280.2339,3.2862 280.2429,3.3142 L280.3009,3.4952 Z" id="Fill-7" fill="#0C0C0C"></path>
                <path d="M279.1122,0.5415 C278.1832,0.5415 277.4272,1.2965 277.4272,2.2255 C277.4272,3.1545 278.1832,3.9095 279.1122,3.9095 C280.0412,3.9095 280.7972,3.1545 280.7972,2.2255 C280.7972,1.2965 280.0412,0.5415 279.1122,0.5415 M279.1122,4.3695 C277.9292,4.3695 276.9672,3.4075 276.9672,2.2255 C276.9672,1.0435 277.9292,0.0815 279.1122,0.0815 C280.2952,0.0815 281.2572,1.0435 281.2572,2.2255 C281.2572,3.4075 280.2952,4.3695 279.1122,4.3695" id="Fill-9" fill="#0C0C0C"></path>
                <g id="Group-13" transform="translate(276.886200, 0.000000)">
                    <mask id="mask-2" fill="white">
                        <use xlink:href="#path-1"></use>
                    </mask>
                    <g id="Clip-12"></g>
                    <path d="M2.226,0.6226 C1.342,0.6226 0.622,1.3416 0.622,2.2256 C0.622,3.1096 1.342,3.8286 2.226,3.8286 C3.11,3.8286 3.83,3.1096 3.83,2.2256 C3.83,1.3416 3.11,0.6226 2.226,0.6226 M2.226,3.9916 C1.252,3.9916 0.46,3.1996 0.46,2.2256 C0.46,1.2526 1.252,0.4596 2.226,0.4596 C3.2,0.4596 3.992,1.2526 3.992,2.2256 C3.992,3.1996 3.2,3.9916 2.226,3.9916 M2.226,0.1626 C1.088,0.1626 0.163,1.0876 0.163,2.2256 C0.163,3.3636 1.088,4.2886 2.226,4.2886 C3.364,4.2886 4.289,3.3636 4.289,2.2256 C4.289,1.0876 3.364,0.1626 2.226,0.1626 M2.226,4.4516 C0.999,4.4516 0,3.4526 0,2.2256 C0,0.9986 0.999,-0.0004 2.226,-0.0004 C3.454,-0.0004 4.452,0.9986 4.452,2.2256 C4.452,3.4526 3.454,4.4516 2.226,4.4516" id="Fill-11" fill="#0C0C0C" mask="url(#mask-2)"></path>
                </g>
                <g id="Group-16">
                    <mask id="mask-4" fill="white">
                        <use xlink:href="#path-3"></use>
                    </mask>
                    <g id="Clip-15"></g>
                    <path d="M175.5975,22.0874 C174.8975,22.8734 174.0685,23.5164 173.1125,24.0164 C172.1555,24.5164 171.1125,24.8874 169.9845,25.1294 C168.8555,25.3734 167.7195,25.4934 166.5775,25.4934 C164.6065,25.4934 162.9425,25.2234 161.5855,24.6804 C160.2295,24.1374 159.1155,23.3804 158.2435,22.4084 C157.3725,21.4384 156.7515,20.3164 156.3805,19.0464 C156.0085,17.7754 155.8235,16.4254 155.8235,14.9964 C155.8235,13.5684 156.0235,12.2114 156.4235,10.9254 C156.8235,9.6414 157.4575,8.5264 158.3295,7.5844 C159.2015,6.6414 160.3075,5.8914 161.6505,5.3344 C162.9935,4.7774 164.6345,4.4994 166.5775,4.4994 C167.9205,4.4994 169.1765,4.6494 170.3485,4.9484 C171.5195,5.2494 172.5615,5.6704 173.4765,6.2134 C174.3895,6.7554 175.1475,7.4054 175.7465,8.1624 C176.3465,8.9204 176.7465,9.7554 176.9475,10.6694 L181.7875,10.6694 C181.5315,8.7554 180.9385,7.1194 180.0095,5.7634 C179.0815,4.4074 177.9315,3.2984 176.5605,2.4424 C175.1895,1.5864 173.6545,0.9644 171.9545,0.5794 C170.2545,0.1934 168.5055,0.0004 166.7055,0.0004 C164.3065,0.0004 162.1435,0.3424 160.2155,1.0284 C158.2865,1.7144 156.6375,2.7074 155.2655,4.0054 C153.8945,5.3064 152.8375,6.8844 152.0955,8.7404 C151.3525,10.5974 150.9815,12.6974 150.9815,15.0394 C150.9815,17.3824 151.3305,19.4824 152.0315,21.3374 C152.7305,23.1944 153.7445,24.7664 155.0735,26.0514 C156.4025,27.3364 158.0225,28.3154 159.9365,28.9854 C161.8495,29.6574 164.0215,29.9924 166.4495,29.9924 C168.2485,29.9924 170.0055,29.7934 171.7195,29.3934 C173.4325,28.9934 174.9905,28.3584 176.3895,27.4864 C177.7885,26.6144 178.9665,25.5014 179.9245,24.1444 C180.8815,22.7874 181.5165,21.1524 181.8315,19.2384 L177.0335,19.2384 C176.7755,20.3524 176.2965,21.3024 175.5975,22.0874 L175.5975,22.0874 Z M145.6605,15.6824 C144.9895,15.0544 144.1675,14.5614 143.1975,14.2044 C142.2255,13.8474 141.1395,13.6114 139.9395,13.4974 L129.8275,12.5974 C128.3135,12.4554 127.1935,12.0544 126.4655,11.3984 C125.7365,10.7404 125.3725,9.8404 125.3725,8.6984 C125.3725,7.6134 125.6425,6.7694 126.1865,6.1704 C126.7285,5.5704 127.4215,5.1204 128.2645,4.8204 C129.1065,4.5204 130.0345,4.3424 131.0495,4.2844 C132.0635,4.2284 133.0275,4.1994 133.9415,4.1994 C134.9705,4.1994 135.9985,4.2354 137.0265,4.3064 C138.0555,4.3774 138.9905,4.5634 139.8325,4.8634 C140.6755,5.1634 141.3615,5.6284 141.8895,6.2554 C142.4185,6.8844 142.6825,7.7704 142.6825,8.9124 L147.2665,8.9124 C147.2665,6.9414 146.8805,5.3704 146.1105,4.1994 C145.3385,3.0284 144.3255,2.1284 143.0685,1.4994 C141.8105,0.8714 140.3905,0.4644 138.8045,0.2784 C137.2195,0.0934 135.6125,0.0004 133.9845,0.0004 C132.4425,0.0004 130.8855,0.1144 129.3145,0.3424 C127.7425,0.5724 126.3215,1.0074 125.0515,1.6504 C123.7795,2.2934 122.7435,3.1924 121.9445,4.3484 C121.1445,5.5064 120.7445,7.0134 120.7445,8.8694 C120.7445,10.0414 120.9305,11.0974 121.3025,12.0404 C121.6725,12.9824 122.2015,13.7904 122.8865,14.4604 C123.5725,15.1324 124.4015,15.6754 125.3725,16.0894 C126.3425,16.5034 127.4575,16.7814 128.7145,16.9254 L138.8685,17.8664 C139.5545,17.9524 140.1605,18.0604 140.6895,18.1894 C141.2185,18.3174 141.6675,18.5174 142.0385,18.7884 C142.4105,19.0614 142.6965,19.4034 142.8965,19.8164 C143.0965,20.2314 143.1975,20.7524 143.1975,21.3804 C143.1975,22.4384 142.8895,23.2664 142.2755,23.8654 C141.6605,24.4654 140.8825,24.9084 139.9395,25.1934 C138.9975,25.4804 137.9625,25.6504 136.8335,25.7084 C135.7045,25.7664 134.6275,25.7944 133.5985,25.7944 C132.5985,25.7944 131.5845,25.7514 130.5565,25.6654 C129.5285,25.5794 128.5995,25.3734 127.7715,25.0444 C126.9425,24.7164 126.2575,24.2364 125.7155,23.6084 C125.1725,22.9814 124.9005,22.1374 124.9005,21.0804 L120.3165,21.0804 C120.3165,22.9944 120.7085,24.5294 121.4945,25.6874 C122.2805,26.8434 123.3085,27.7434 124.5795,28.3864 C125.8505,29.0284 127.2715,29.4564 128.8435,29.6714 C130.4135,29.8864 131.9855,29.9924 133.5555,29.9924 C135.1845,29.9924 136.8405,29.9074 138.5265,29.7354 C140.2115,29.5654 141.7405,29.1724 143.1105,28.5584 C144.4815,27.9434 145.5965,27.0364 146.4525,25.8364 C147.3095,24.6374 147.7385,23.0244 147.7385,20.9944 C147.7385,19.8534 147.5595,18.8384 147.2025,17.9524 C146.8445,17.0674 146.3305,16.3114 145.6605,15.6824 L145.6605,15.6824 Z M274.9065,4.4564 L274.9065,0.0004 L250.2255,0.0004 L250.2255,29.9924 L274.9065,29.9924 L274.9065,25.5364 L254.9825,25.5364 L254.9825,16.9684 L274.9065,16.9684 L274.9065,12.6824 L254.9825,12.6824 L254.9825,4.4564 L274.9065,4.4564 Z M240.2855,13.7974 C239.2715,14.5974 237.8225,14.9964 235.9365,14.9964 L224.5825,14.9964 L224.5825,4.3274 L235.7225,4.3274 C237.6075,4.3274 239.0915,4.7994 240.1775,5.7414 C241.2635,6.6844 241.8065,8.1274 241.8065,10.0694 C241.8065,11.7554 241.2995,12.9974 240.2855,13.7974 L240.2855,13.7974 Z M245.8765,14.1824 C246.4765,13.0114 246.7765,11.6264 246.7765,10.0264 C246.7765,8.5124 246.5345,7.1414 246.0475,5.9134 C245.5625,4.6854 244.8765,3.6354 243.9915,2.7634 C243.1065,1.8924 242.0355,1.2144 240.7785,0.7284 C239.5215,0.2434 238.1215,0.0004 236.5785,0.0004 L219.8265,0.0004 L219.8265,29.9924 L224.5825,29.9924 L224.5825,19.3234 L235.8505,19.3234 L235.8625,19.3234 L241.5925,29.9924 L246.7765,29.9924 L240.6185,18.5524 C241.6645,18.1904 242.6155,17.7024 243.4555,17.0744 C244.4695,16.3184 245.2775,15.3544 245.8765,14.1824 L245.8765,14.1824 Z M200.3195,0.0004 L207.2605,18.8534 L192.9505,18.8534 L200.3195,0.0004 L195.4345,0.0004 L183.6095,29.9924 L188.7505,29.9924 L191.5355,22.9664 L208.6745,22.9664 L211.2455,29.9924 L216.4295,29.9924 L205.1605,0.0004 L200.3195,0.0004 Z M114.8115,15.6824 C114.1395,15.0544 113.3185,14.5614 112.3475,14.2044 C111.3755,13.8474 110.2905,13.6114 109.0905,13.4974 L98.9785,12.5974 C97.4645,12.4554 96.3445,12.0544 95.6155,11.3984 C94.8875,10.7404 94.5235,9.8404 94.5235,8.6984 C94.5235,7.6134 94.7935,6.7694 95.3375,6.1704 C95.8795,5.5704 96.5725,5.1204 97.4155,4.8204 C98.2575,4.5204 99.1855,4.3424 100.2005,4.2844 C101.2135,4.2284 102.1785,4.1994 103.0925,4.1994 C104.1205,4.1994 105.1485,4.2354 106.1775,4.3064 C107.2055,4.3774 108.1405,4.5634 108.9835,4.8634 C109.8265,5.1634 110.5125,5.6284 111.0405,6.2554 C111.5695,6.8844 111.8325,7.7704 111.8325,8.9124 L116.4175,8.9124 C116.4175,6.9414 116.0325,5.3704 115.2605,4.1994 C114.4895,3.0284 113.4755,2.1284 112.2185,1.4994 C110.9615,0.8714 109.5405,0.4644 107.9555,0.2784 C106.3705,0.0934 104.7635,0.0004 103.1355,0.0004 C101.5925,0.0004 100.0355,0.1144 98.4655,0.3424 C96.8935,0.5724 95.4725,1.0074 94.2015,1.6504 C92.9305,2.2934 91.8945,3.1924 91.0955,4.3484 C90.2955,5.5064 89.8955,7.0134 89.8955,8.8694 C89.8955,10.0414 90.0805,11.0974 90.4525,12.0404 C90.8235,12.9824 91.3515,13.7904 92.0375,14.4604 C92.7225,15.1324 93.5515,15.6754 94.5235,16.0894 C95.4935,16.5034 96.6075,16.7814 97.8655,16.9254 L108.0195,17.8664 C108.7045,17.9524 109.3115,18.0604 109.8405,18.1894 C110.3685,18.3174 110.8185,18.5174 111.1905,18.7884 C111.5615,19.0614 111.8475,19.4034 112.0475,19.8164 C112.2475,20.2314 112.3475,20.7524 112.3475,21.3804 C112.3475,22.4384 112.0395,23.2664 111.4265,23.8654 C110.8105,24.4654 110.0335,24.9084 109.0905,25.1934 C108.1485,25.4804 107.1125,25.6504 105.9845,25.7084 C104.8555,25.7664 103.7775,25.7944 102.7495,25.7944 C101.7485,25.7944 100.7355,25.7514 99.7065,25.6654 C98.6785,25.5794 97.7505,25.3734 96.9225,25.0444 C96.0935,24.7164 95.4085,24.2364 94.8665,23.6084 C94.3225,22.9814 94.0515,22.1374 94.0515,21.0804 L89.4675,21.0804 C89.4675,22.9944 89.8595,24.5294 90.6445,25.6874 C91.4305,26.8434 92.4595,27.7434 93.7295,28.3864 C95.0005,29.0284 96.4225,29.4564 97.9935,29.6714 C99.5635,29.8864 101.1355,29.9924 102.7065,29.9924 C104.3355,29.9924 105.9915,29.9074 107.6765,29.7354 C109.3615,29.5654 110.8905,29.1724 112.2615,28.5584 C113.6325,27.9434 114.7465,27.0364 115.6035,25.8364 C116.4605,24.6374 116.8895,23.0244 116.8895,20.9944 C116.8895,19.8534 116.7095,18.8384 116.3535,17.9524 C115.9955,17.0674 115.4815,16.3114 114.8115,15.6824 L114.8115,15.6824 Z M65.5635,29.9074 L65.5215,29.9074 L58.2795,0.0004 L48.5105,0.0004 L41.7845,29.8644 L41.7405,29.8644 L35.1855,0.0004 L30.4725,0.0004 L36.9425,29.9924 L46.6245,29.9924 L53.3525,0.0854 L53.3955,0.0854 L60.6795,29.9924 L70.3625,29.9924 L76.1465,0.0004 L71.2625,0.0004 L65.5635,29.9074 Z M25.3445,15.6824 C24.6725,15.0544 23.8515,14.5614 22.8805,14.2044 C21.9095,13.8474 20.8235,13.6114 19.6235,13.4974 L9.5115,12.5974 C7.9975,12.4554 6.8775,12.0544 6.1485,11.3984 C5.4205,10.7404 5.0565,9.8404 5.0565,8.6984 C5.0565,7.6134 5.3265,6.7694 5.8695,6.1704 C6.4125,5.5704 7.1055,5.1204 7.9485,4.8204 C8.7895,4.5204 9.7195,4.3424 10.7335,4.2844 C11.7465,4.2284 12.7115,4.1994 13.6255,4.1994 C14.6535,4.1994 15.6815,4.2354 16.7105,4.3064 C17.7385,4.3774 18.6745,4.5634 19.5165,4.8634 C20.3595,5.1634 21.0445,5.6284 21.5735,6.2554 C22.1015,6.8844 22.3665,7.7704 22.3665,8.9124 L26.9505,8.9124 C26.9505,6.9414 26.5645,5.3704 25.7935,4.1994 C25.0225,3.0284 24.0085,2.1284 22.7515,1.4994 C21.4945,0.8714 20.0745,0.4644 18.4885,0.2784 C16.9035,0.0934 15.2965,0.0004 13.6675,0.0004 C12.1255,0.0004 10.5685,0.1144 8.9975,0.3424 C7.4265,0.5724 6.0045,1.0074 4.7345,1.6504 C3.4635,2.2934 2.4275,3.1924 1.6285,4.3484 C0.8285,5.5064 0.4285,7.0134 0.4285,8.8694 C0.4285,10.0414 0.6145,11.0974 0.9855,12.0404 C1.3565,12.9824 1.8855,13.7904 2.5705,14.4604 C3.2565,15.1324 4.0845,15.6754 5.0565,16.0894 C6.0265,16.5034 7.1405,16.7814 8.3975,16.9254 L18.5525,17.8664 C19.2385,17.9524 19.8445,18.0604 20.3735,18.1894 C20.9015,18.3174 21.3515,18.5174 21.7225,18.7884 C22.0945,19.0614 22.3795,19.4034 22.5805,19.8164 C22.7805,20.2314 22.8805,20.7524 22.8805,21.3804 C22.8805,22.4384 22.5735,23.2664 21.9585,23.8654 C21.3445,24.4654 20.5665,24.9084 19.6235,25.1934 C18.6815,25.4804 17.6455,25.6504 16.5165,25.7084 C15.3885,25.7664 14.3105,25.7944 13.2825,25.7944 C12.2825,25.7944 11.2685,25.7514 10.2405,25.6654 C9.2115,25.5794 8.2835,25.3734 7.4545,25.0444 C6.6265,24.7164 5.9405,24.2364 5.3995,23.6084 C4.8555,22.9814 4.5845,22.1374 4.5845,21.0804 L-0.0005,21.0804 C-0.0005,22.9944 0.3915,24.5294 1.1785,25.6874 C1.9635,26.8434 2.9925,27.7434 4.2635,28.3864 C5.5345,29.0284 6.9555,29.4564 8.5275,29.6714 C10.0975,29.8864 11.6685,29.9924 13.2395,29.9924 C14.8685,29.9924 16.5245,29.9074 18.2095,29.7354 C19.8945,29.5654 21.4235,29.1724 22.7945,28.5584 C24.1655,27.9434 25.2805,27.0364 26.1365,25.8364 C26.9935,24.6374 27.4225,23.0244 27.4225,20.9944 C27.4225,19.8534 27.2435,18.8384 26.8865,17.9524 C26.5285,17.0674 26.0145,16.3114 25.3445,15.6824 L25.3445,15.6824 Z M80.3035,29.9924 L85.0585,29.9924 L85.0585,-0.0006 L80.3035,-0.0006 L80.3035,29.9924 Z" id="Fill-14" fill="#0C0C0C" mask="url(#mask-4)"></path>
                </g>
            </g>
        </g>
    </g>
</svg>
